<svg width="1012" height="936" viewBox="0 0 1012 936" fill="none" xmlns="http://www.w3.org/2000/svg">
<g opacity="0.3" clip-path="url(#clip0_2306_2)">
<path d="M491.61 527.643C486.051 526.216 481.944 530.11 476.805 534.182C470.466 538.992 464.762 548.999 452.102 526.512C447.489 518.288 446.975 504.58 436.719 488.31C429.766 477.306 407.949 449.503 443.798 443.307C463.656 439.874 492.49 454.525 501.581 470.2C507.671 480.823 485.139 490.289 496.586 504.23C503.048 512.4 510.615 525.42 507.372 529.695C504.342 533.668 496.912 529.115 491.61 527.643Z" stroke="#202222" stroke-width="0.5"/>
<path d="M519.615 463.9C528.16 474.893 504.918 487.931 513.894 506.014C515.115 508.456 516.379 511.157 517.385 513.901C521.1 523.076 527.651 531.761 526.346 536.497C524.546 544.503 517.439 543.343 510.253 543.259C502.551 543.264 495.607 547.648 486.704 548.391C475.694 549.233 473.387 558.918 458.821 548.434C454.888 545.665 450.638 547.196 446.488 537.034C443.254 529.102 439.901 529.682 437.61 521.057C434.615 509.9 438.265 501.84 423.378 487.963C405.677 471.653 397.619 428.204 438.655 425.888C439.989 425.923 441.323 425.957 442.702 426.249C457.388 428.223 467.505 436.025 494.346 448.367C504.354 452.475 514.15 456.884 519.615 463.9Z" stroke="#202222" stroke-width="0.5"/>
<path d="M537.39 457.643C548.435 469.266 524.012 486.223 530.901 507.585C531.952 510.588 532.79 513.892 533.628 517.196C536.32 528.141 545.63 537.41 545.58 543.255C545.312 555.507 538.224 557.528 528.895 558.875C519.263 560.009 508.575 564.245 496.861 562.555C479.373 559.74 480.012 572.631 458.722 560.126C453.108 556.851 446.992 562.95 441.433 547.725C436.925 535.503 431.236 540.997 428.365 529.023C424.398 513.788 434.203 505.992 410.338 487.828C382.148 466.167 388.028 408.105 433.816 408.682C435.665 408.627 437.346 409.133 439.028 409.638C455.751 414.178 460.428 425.84 503.084 442.08C515.504 446.302 529.594 449.439 537.39 457.643Z" stroke="#202222" stroke-width="0.5"/>
<path d="M555.424 451.342C568.452 463.683 544.61 483.989 547.907 509.157C548.274 512.808 548.944 516.672 549.613 520.536C551.285 533.249 562.061 543.326 564.298 550.103C569.688 565.887 558.752 571.757 547.236 574.279C535.719 576.8 521.5 580.584 506.671 576.249C482.875 569.218 486.033 585.919 457.972 571.134C450.676 567.354 442.74 578.277 435.728 557.733C429.947 541.219 422.224 551.841 418.471 536.305C413.789 516.949 429.491 509.459 396.863 486.708C357.926 459.741 378.045 387.278 428.539 390.49C430.692 390.649 432.675 391.367 434.917 392.041C453.634 398.889 452.96 414.925 511.344 434.551C526.912 440.085 545.252 441.691 555.424 451.342Z" stroke="#202222" stroke-width="0.5"/>
<path d="M573.199 445.086C588.211 458.145 562.887 482.157 564.958 510.985C565.157 515.197 565.4 519.665 565.642 524.134C566.336 538.872 580.128 549.49 583.317 557.164C591.014 577.06 579.279 585.987 565.878 589.894C552.477 593.803 534.726 597.137 516.827 590.413C486.981 579.121 492.659 599.632 457.827 582.568C449.109 578.238 439.353 593.987 430.63 568.165C423.618 547.621 413.515 562.898 408.968 544.315C403.314 520.883 425.474 513.868 383.825 486.574C334.398 454.256 368.499 367.436 423.654 373.027C426.367 373.354 428.653 374.286 430.984 375.475C451.74 384.888 445.714 405.299 519.825 428.309C538.061 433.912 560.697 434.245 573.199 445.086Z" stroke="#202222" stroke-width="0.5"/>
<path d="M590.975 438.829C608.274 452.821 581.936 480.191 581.965 512.557C581.995 517.328 581.766 522.143 581.84 527.171C581.513 543.678 598.578 554.791 602.248 563.709C612.206 587.46 600.02 599.913 584.476 605.254C569.191 610.549 548.122 613.13 526.895 604.062C490.74 588.555 498.937 612.875 457.381 593.789C446.981 588.953 435.404 609.528 424.97 578.431C416.684 553.595 404.502 573.743 399.117 551.855C392.492 524.345 420.807 517.594 370.18 486.014C310.007 448.39 358.179 347.729 418.209 355.395C421.18 355.678 424.072 357.035 426.705 358.437C449.713 370.115 438.121 395.202 527.959 421.597C549.255 427.998 576.141 426.801 590.975 438.829Z" stroke="#202222" stroke-width="0.5"/>
<path d="M609.008 432.528C628.291 447.238 601.244 478.181 599.23 514.083C598.832 519.458 598.435 524.833 598.083 530.466C596.991 548.697 618.317 559.87 621.223 570.512C629.237 599.904 620.546 614.142 603.074 620.612C585.859 627.036 561.303 629.423 537.006 617.968C494.801 598.2 505.259 626.374 457.192 604.966C445.111 599.625 431.669 624.766 419.827 588.605C410.523 559.436 395.792 584.8 389.782 559.306C382.444 527.673 416.7 521.487 357.31 485.32C286.647 442.344 348.588 327.628 413.538 337.629C417.07 338.08 420.005 339.695 423.199 341.266C448.2 355.252 431.044 385.016 537.124 414.706C560.662 421.781 591.585 419.354 609.008 432.528Z" stroke="#202222" stroke-width="0.5"/>
<path d="M626.784 426.272C648.05 441.7 620.553 476.17 616.022 515.957C615.457 521.891 614.634 527.871 613.854 534.108C611.741 554.108 636.34 565.776 639.985 577.616C650.305 611.122 641.074 628.372 621.504 636.531C602.403 644.342 574.575 646.234 546.95 632.435C498.694 608.406 511.716 640.648 456.879 616.96C443.116 611.113 427.854 641.08 414.559 599.599C403.981 566.138 387.173 596.373 380.369 567.831C372.058 532.122 412.728 526.153 344.316 485.443C262.905 437.162 339.175 308.56 408.744 320.681C412.577 321.344 416.074 323.128 419.311 324.957C446.564 341.207 423.63 375.949 545.606 408.463C571.811 415.608 607.03 411.909 626.784 426.272Z" stroke="#202222" stroke-width="0.5"/>
<path d="M644.862 420.229C668.156 436.632 639.905 474.416 633.332 517.741C632.339 524.28 631.347 530.819 630.142 537.661C627.006 559.429 654.621 571.637 659.004 584.677C671.631 622.294 661.646 642.858 640.145 652.146C618.903 661.39 587.756 662.528 557.062 646.342C502.755 618.051 518.04 654.148 456.432 628.18C440.943 621.572 423.905 656.621 409.158 609.819C397.306 572.068 378.205 607.474 370.777 575.326C361.538 535.797 408.318 529.835 330.93 484.838C238.772 431.25 329.068 288.55 403.556 303.004C407.692 303.881 411.749 305.833 415.334 308.132C444.838 326.647 416.384 366.323 554.041 401.964C582.961 409.436 622.474 404.463 644.862 420.229Z" stroke="#202222" stroke-width="0.5"/>
<path d="M662.637 413.972C687.916 431.095 658.955 472.45 650.338 519.311C649.177 526.41 647.501 533.599 646.34 540.698C642.182 564.235 673.026 576.681 678.193 591.178C692.868 632.952 682.6 656.483 658.743 667.505C635.616 678.136 601.196 678.778 566.916 660.293C506.559 627.742 524.318 667.39 456.03 639.659C438.86 632.545 419.957 672.162 403.801 620.297C390.675 578.256 369.495 618.531 361.229 583.079C351.019 539.473 403.998 534.03 317.846 484.446C215.199 425.508 319.308 269.01 398.627 285.283C403.323 286.328 407.38 288.281 411.571 291.006C443.069 311.829 409.093 356.44 562.691 395.162C594.413 403.477 637.92 397.018 662.637 413.972Z" stroke="#202222" stroke-width="0.5"/>
<path d="M680.671 407.671C707.978 425.77 678.308 470.698 667.389 521.141C665.757 528.586 663.956 536.592 662.369 544.296C657.235 569.859 691.049 582.588 696.955 598.282C713.935 644.168 702.914 671.014 677.128 683.166C652.071 694.926 614.378 695.073 576.816 674.502C510.408 637.69 530.428 681.194 455.37 651.183C436.518 643.562 415.795 688.006 397.929 630.864C383.528 584.532 360.012 629.723 351.166 590.922C340.242 543.193 399.375 538.013 303.989 484.187C190.594 419.943 308.774 249.604 392.969 267.953C397.924 268.954 402.586 271.333 406.821 274.315C440.57 297.402 400.817 346.992 570.355 388.796C605.563 397.304 653.364 389.573 680.671 407.671Z" stroke="#202222" stroke-width="0.5"/>
<path d="M698.446 401.415C727.737 420.233 697.358 468.732 684.396 522.712C682.337 530.762 680.323 539.07 678.354 547.636C672.198 574.967 709.286 588.191 715.673 605.13C734.959 655.128 723.397 684.986 695.469 698.569C668.528 711.716 627.303 711.413 586.626 688.196C514.167 647.123 536.448 694.481 454.924 662.404C434.391 654.278 411.848 703.546 392.527 641.084C376.852 590.462 351.303 640.78 341.618 598.675C329.723 546.869 395.056 542.209 290.861 483.539C166.978 413.943 298.971 229.808 388.04 250.232C393.555 251.401 398.519 253.993 403.102 257.446C439.103 282.797 393.571 337.366 579.005 381.995C616.971 391.087 668.551 382.172 698.446 401.415Z" stroke="#202222" stroke-width="0.5"/>
<path d="M716.48 395.114C747.799 414.907 716.665 466.721 701.66 524.238C699.433 532.848 696.992 541.761 694.854 550.886C687.677 579.987 727.78 593.751 735.164 611.843C756.756 665.953 744.44 699.126 714.627 714.096C685.801 728.63 641.303 727.831 597.298 702.271C518.788 656.937 543.589 708.105 455.036 673.794C432.823 665.163 408.459 719.256 387.686 651.472C370.736 596.56 342.851 651.793 332.586 606.338C319.718 550.455 391.206 546.058 278.293 483.057C143.662 408.156 289.727 210.179 383.671 232.679C389.488 234.062 394.755 236.867 399.898 240.488C438.15 268.104 387.099 327.606 588.215 375.362C628.164 385.173 683.996 374.727 716.48 395.114Z" stroke="#202222" stroke-width="0.5"/>
<path d="M734.255 388.858C767.604 409.627 735.929 464.453 718.712 526.066C716.057 535.282 713.449 544.754 710.884 554.483C702.685 585.352 746.016 599.355 753.926 618.948C777.824 677.17 764.709 713.399 733.011 729.757C702.043 745.723 654.485 744.125 607.196 716.479C522.637 666.885 549.744 722.165 454.68 685.529C430.785 676.393 404.555 735.054 382.374 662.207C364.407 602.96 334.186 663.107 323.083 614.348C309.502 554.344 387.144 550.21 264.997 482.967C119.876 402.715 279.754 190.942 378.573 215.518C384.694 217.114 390.521 220.086 395.708 223.965C436.213 253.845 379.383 318.326 596.439 369.164C639.314 379 699.44 367.281 734.255 388.858Z" stroke="#202222" stroke-width="0.5"/>
<path d="M752.289 382.557C787.621 404.044 755.237 462.443 735.718 527.638C732.896 537.413 729.86 547.489 726.825 557.566C717.603 590.203 763.951 604.745 772.857 625.494C799.061 687.827 785.45 727.327 751.61 745.116C718.712 762.211 667.925 760.376 617.264 730.129C526.654 676.274 556.281 735.363 454.188 696.493C428.869 686.807 400.563 750.338 376.928 672.17C357.687 608.633 325.174 673.951 313.491 621.844C298.938 557.761 382.78 554.148 251.869 482.318C96.0012 396.759 269.691 171.189 373.644 197.797C380.325 199.561 386.454 202.747 391.945 206.839C434.7 238.983 372.092 308.443 605.346 362.318C650.721 372.783 714.929 360.093 752.289 382.557Z" stroke="#202222" stroke-width="0.5"/>
<path d="M770.064 376.3C807.682 398.72 774.286 460.477 752.769 529.466C749.52 539.845 746.058 550.527 742.854 561.163C732.61 595.569 782.23 610.607 791.618 632.598C820.084 698.787 805.764 741.857 769.736 760.821C734.954 779.303 680.636 777.018 626.905 744.382C530.244 686.266 562.132 749.21 453.573 708.275C426.573 698.083 396.445 766.438 371.1 682.995C350.585 615.167 315.993 685.355 303.472 629.943C287.947 561.784 377.944 558.434 238.011 482.06C71.3962 391.194 259.158 151.784 367.941 180.21C374.924 182.186 381.357 185.585 387.452 190.104C432.201 224.557 364.117 299.207 613.222 355.651C661.915 366.868 730.373 352.648 770.064 376.3Z" stroke="#202222" stroke-width="0.5"/>
<path d="M788.142 370.257C827.744 393.394 793.639 458.723 770.077 531.251C766.402 542.234 762.771 553.474 759.398 564.671C748.133 600.846 800.725 616.166 811.154 639.57C841.925 709.87 827.064 755.953 788.939 776.606C752.227 796.217 694.636 793.436 637.622 758.714C535.124 696.036 569.06 763.136 453.731 719.922C425.049 709.224 393.057 782.148 366.303 693.641C344.514 621.523 307.631 696.884 294.485 637.864C277.987 565.627 374.397 562.496 225.489 481.837C48.3838 385.62 249.958 132.412 363.617 162.915C371.115 164.802 377.895 168.671 384.035 173.447C431.036 210.165 357.174 289.795 622.219 349.319C673.065 360.696 745.818 345.203 788.142 370.257Z" stroke="#202222" stroke-width="0.5"/>
<path d="M805.918 364.001C847.549 388.114 812.69 456.758 787.085 532.822C783.24 544.365 779.182 556.211 775.383 568.011C763.141 606.212 818.961 621.77 829.871 646.418C862.949 720.83 847.289 769.969 807.279 792.009C768.425 813.052 707.819 809.73 647.174 772.453C538.625 705.513 575.08 776.424 452.981 730.93C422.574 719.469 389.064 797.432 360.599 703.648C337.535 627.239 298.574 707.47 284.635 645.405C267.423 569.046 369.775 566.478 212.103 481.232C24.2509 379.708 239.897 112.66 358.43 145.238C366.232 147.339 373.526 151.119 380.014 156.366C429.266 195.347 349.885 279.911 630.611 342.562C684.473 354.479 761.005 337.802 805.918 364.001Z" stroke="#202222" stroke-width="0.5"/>
<path d="M823.951 357.7C867.61 382.79 831.997 454.747 804.136 534.651C799.865 546.798 795.594 558.946 791.368 571.351C778.104 611.32 836.94 627.418 848.589 653.264C883.972 731.789 867.817 784.198 825.62 807.412C784.88 829.842 720.956 825.768 657.028 786.404C542.429 715.204 581.145 789.968 452.321 742.452C420.233 730.488 384.902 813.275 354.985 714.171C330.646 633.472 289.349 718.617 274.572 653.246C256.389 572.811 364.895 570.506 198.246 480.974C-0.0955928 374.1 229.363 93.2539 352.772 127.908C360.876 130.222 368.473 134.215 375.565 139.888C427.07 181.134 341.954 270.934 638.577 336.41C695.666 348.564 776.449 330.356 823.951 357.7Z" stroke="#202222" stroke-width="0.5"/>
<path d="M841.727 351.443C887.369 377.252 851.047 452.781 821.142 536.222C816.702 548.929 812.006 561.681 807.61 574.645C793.325 616.384 855.434 632.978 867.822 660.023C905.512 742.659 888.602 798.383 844.52 822.984C801.896 846.801 734.441 842.276 667.398 800.266C546.748 724.805 587.726 803.424 452.39 753.585C418.621 741.114 381.469 828.726 350.099 724.302C324.486 639.312 281.155 729.585 265.496 660.652C246.339 576.139 361.304 574.31 185.588 479.977C-23.5 367.796 219.771 73.1546 348.313 109.84C356.978 112.322 364.878 116.529 372.015 122.459C425.77 165.968 334.877 260.747 647.395 329.048C707.074 342.347 791.938 323.168 841.727 351.443Z" stroke="#202222" stroke-width="0.5"/>
<path d="M859.76 345.142C907.432 371.927 870.613 450.726 838.407 537.749C833.541 551.06 828.417 564.416 823.853 577.941C808.547 621.447 873.625 638.324 886.798 666.826C926.793 753.574 909.085 812.354 863.119 838.342C818.565 863.289 747.88 858.525 677.51 814.173C550.81 734.45 594.307 816.879 451.988 765.063C416.537 752.087 377.521 844.267 344.44 734.567C317.552 645.286 271.886 740.474 255.69 668.45C235.82 579.815 356.682 578.293 172.247 479.63C-47.3307 362.098 209.755 53.6594 343.127 92.1629C352.094 94.8586 360.555 99.234 367.994 105.377C424.001 151.15 327.329 250.909 655.787 322.291C718.223 336.175 807.384 315.722 859.76 345.142Z" stroke="#202222" stroke-width="0.5"/>
<path d="M877.536 338.887C927.235 366.646 889.404 448.804 855.457 539.577C850.165 553.494 844.872 567.409 839.882 581.538C823.553 626.813 891.906 644.186 905.817 673.886C948.075 764.489 929.915 826.797 881.806 854.216C835.367 880.55 761.364 875.032 687.711 828.595C554.96 744.612 600.72 830.895 451.888 776.755C414.756 763.273 373.919 860.279 339.386 745.257C311.481 651.643 263.478 751.744 246.445 676.415C225.648 583.961 352.62 582.445 159.208 479.495C-71.1171 356.657 200.039 34.3779 338.287 74.9578C347.814 77.8215 356.319 82.4539 364.319 88.7661C422.577 136.804 320.172 241.798 664.784 315.96C729.417 330.26 822.57 308.322 877.536 338.887Z" stroke="#202222" stroke-width="0.5"/>
<path d="M895.57 332.586C947.253 361.064 908.97 446.749 872.465 541.149C867.003 555.625 861.284 570.144 855.823 584.62C838.473 631.664 909.841 649.576 924.49 680.476C969.05 775.191 950.095 840.555 899.843 869.405C851.52 897.127 774.245 891.114 697.218 842.075C558.631 753.53 606.695 843.925 450.881 787.807C412.067 773.821 369.411 875.652 333.424 755.309C304.245 657.404 253.95 762.677 236.292 683.742C214.524 587.21 347.694 586.215 145.52 478.677C-95.5524 350.534 189.675 14.4123 332.797 57.0676C342.583 59.8877 351.693 64.9462 359.782 71.7734C420.292 122.075 312.198 232.562 672.661 309.292C740.567 324.088 838.015 300.877 895.57 332.586Z" stroke="#202222" stroke-width="0.5"/>
<path d="M913.346 326.329C967.055 355.783 928.021 444.783 889.471 542.72C883.539 557.542 877.696 572.88 872.065 587.915C853.738 636.986 928.29 654.878 943.51 687.536C990.638 786.319 970.924 854.997 918.486 885.022C868.02 914.174 787.685 907.364 707.376 856.24C562.737 763.433 613.063 857.683 450.737 799.242C410.242 784.75 365.72 891.148 328.325 765.742C297.871 663.547 245.499 773.691 227.003 691.451C204.262 590.842 343.846 590.065 132.392 478.028C-119.17 344.533 179.612 -5.3408 327.868 39.3464C337.955 42.379 347.628 47.6065 356.018 54.6462C418.781 107.212 304.908 222.679 681.265 302.233C752.018 318.129 853.504 293.688 913.346 326.329Z" stroke="#202222" stroke-width="0.5"/>
<path d="M931.423 320.286C987.163 350.717 947.373 443.03 906.824 544.761C900.724 560.144 894.454 576.086 888.397 591.726C869.048 642.564 946.616 660.997 962.832 694.809C1012.27 797.704 991.802 869.697 937.476 901.109C885.081 931.396 801.258 924.383 717.621 870.919C566.976 774.109 619.52 871.955 450.469 811.494C408.293 796.495 361.951 907.718 323.101 776.992C291.375 670.507 236.71 785.822 217.634 700.234C194.178 595.502 339.704 595.291 119.486 478.666C-142.823 339.865 170.075 -23.5918 323.162 22.9143C333.81 26.1149 343.481 31.3413 352.478 38.8081C417.491 93.6374 297.84 214.083 690.138 296.719C763.169 311.956 868.948 286.243 931.423 320.286Z" stroke="#202222" stroke-width="0.5"/>
<path d="M981.5 701.4C1082.93 911.259 904.43 998.626 727.43 884.613C570.736 783.542 625.842 885.456 449.977 822.458C406.377 806.91 357.957 923.007 317.398 787C284.396 676.224 227.653 796.41 207.739 707.517C183.312 598.708 334.992 598.759 106.056 477.804C-185.737 323.669 208.257 -97.5852 348.153 21.5127C415.206 78.9093 290.203 203.728 698.228 289.749C774.318 305.784 884.134 278.843 949.198 314.03C1015.73 350.024 951.811 471.715 904.383 595.066C883.966 647.416 964.549 666.389 981.5 701.4Z" stroke="#202222" stroke-width="0.5"/>
</g>
<defs>
<clipPath id="clip0_2306_2">
<rect width="1012" height="936" fill="white"/>
</clipPath>
</defs>
</svg>
